<svg xmlns="http://www.w3.org/2000/svg" width="120" height="120" viewBox="0 0 12 12">
  <rect width="100%" height="100%" fill="transparent"/>
  <g transform="translate(6 6)">
    <g id="heart" transform="scale(1)">
      <rect x="-4" y="-3" width="1" height="1" fill="#ff6b6b"/>
      <rect x="-3" y="-3" width="1" height="1" fill="#ff6b6b"/>
      <rect x="-2" y="-3" width="1" height="1" fill="#ff6b6b"/>
      <rect x="-1" y="-2" width="1" height="1" fill="#ff6b6b"/>
      <rect x="0" y="-3" width="1" height="1" fill="#ff6b6b"/>
      <rect x="1" y="-3" width="1" height="1" fill="#ff6b6b"/>
      <rect x="2" y="-3" width="1" height="1" fill="#ff6b6b"/>
      <rect x="-4" y="-2" width="1" height="1" fill="#ff4757"/>
      <rect x="-3" y="-2" width="1" height="1" fill="#ff4757"/>
      <rect x="-2" y="-2" width="1" height="1" fill="#ff4757"/>
      <rect x="-1" y="-1" width="1" height="1" fill="#ff4757"/>
      <rect x="0" y="-2" width="1" height="1" fill="#ff4757"/>
      <rect x="1" y="-2" width="1" height="1" fill="#ff4757"/>
      <rect x="2" y="-2" width="1" height="1" fill="#ff4757"/>
      <rect x="-3" y="-1" width="1" height="1" fill="#ff2d55"/>
      <rect x="-2" y="-1" width="1" height="1" fill="#ff2d55"/>
      <rect x="-1" y="0" width="1" height="1" fill="#ff2d55"/>
      <rect x="0" y="-1" width="1" height="1" fill="#ff2d55"/>
      <rect x="1" y="-1" width="1" height="1" fill="#ff2d55"/>
      <rect x="-2" y="0" width="1" height="1" fill="#c0392b"/>
      <rect x="-1" y="1" width="1" height="1" fill="#c0392b"/>
      <rect x="0" y="0" width="1" height="1" fill="#c0392b"/>
      <rect x="1" y="0" width="1" height="1" fill="#c0392b"/>
      <rect x="0" y="1" width="1" height="1" fill="#992d22"/>
    </g>
    <animateTransform xlink:href="#heart" attributeName="transform" type="scale"
      values="1;1.2;1" dur="0.9s" repeatCount="indefinite" additive="sum"/>
  </g>
</svg>
